<svg width="42" height="31" viewBox="0 0 42 31" fill="none" xmlns="http://www.w3.org/2000/svg">
<path d="M41.7184 13.665C41.68 13.2491 41.5905 12.8454 41.4753 12.4539C40.9762 10.8391 39.8245 9.44444 38.3144 8.55139C37.1883 7.87854 35.8574 7.48706 34.4625 7.48706C31.7879 7.48706 31.7751 11.4752 34.4625 11.463C35.3455 11.463 36.0877 11.7811 36.6252 12.2704C37.0091 12.6252 37.2906 13.0656 37.4314 13.5549C37.5466 13.9342 37.585 14.3257 37.5338 14.7049C37.457 15.2187 37.2394 15.7203 36.8171 16.1607C36.638 16.3564 36.4204 16.5277 36.1645 16.6867C36.0493 16.7601 35.9341 16.8213 35.8062 16.8702C34.3601 17.5064 32.4533 16.9926 30.9049 17.2862C28.883 17.6654 27.3473 18.9377 26.7203 20.8217C25.5301 24.3817 28.3071 27.1343 29.4204 30.2905H33.6819C33.4515 29.2507 33.0804 28.223 32.6069 27.2566C31.9159 25.8253 30.5978 24.2961 30.6106 22.6568C30.6106 20.9196 32.2998 21.1031 33.6947 21.1153C35.7678 21.1398 37.6234 20.7361 39.223 19.4393C39.5685 19.1579 39.8884 18.8399 40.17 18.4973C40.4771 18.1303 40.7458 17.7266 40.9634 17.3107C41.3089 16.65 41.5521 15.9527 41.6672 15.2309C41.7568 14.7049 41.7696 14.1911 41.7184 13.6773V13.665Z" fill="white" stroke="black" stroke-width="0.4" stroke-miterlimit="10"/>
<path d="M15.51 28.4309C15.51 26.2044 17.404 24.3938 19.733 24.3938C20.0914 24.3938 20.4241 24.4427 20.7568 24.5161C19.861 21.7391 19.861 19.9041 19.861 19.9041H7.02554C7.02554 19.9041 7.02554 24.455 3.50635 30.0947H4.03103C4.10781 30.009 4.1718 29.9234 4.24858 29.8378C4.37655 29.7032 4.5813 29.8989 4.45333 30.0335C4.44053 30.058 4.41494 30.0702 4.40214 30.0947H16.5082C15.8811 29.8745 15.51 29.4096 15.51 28.4187V28.4309Z" fill="white" stroke="black" stroke-width="0.4" stroke-miterlimit="10"/>
<path d="M19.3108 30.2537C19.1957 30.2537 19.0805 30.2537 18.9525 30.2537V30.2781H19.3236L19.298 30.2537H19.3108Z" fill="#160301"/>
<path d="M16.5082 30.1069C17.1224 30.3149 17.9798 30.2782 18.9652 30.2537C18.9268 30.2048 18.8884 30.1559 18.85 30.1069H16.5082Z" fill="white" stroke="black" stroke-width="0.4" stroke-miterlimit="10"/>
<path d="M19.2084 30.1069H18.8501C18.8501 30.1069 18.9269 30.2048 18.9653 30.2537C19.0804 30.2537 19.1956 30.2537 19.3236 30.2537C19.2852 30.2048 19.2468 30.1559 19.2212 30.1069H19.2084Z" fill="white" stroke="black" stroke-width="0.4" stroke-miterlimit="10"/>
<path d="M20.2066 29.2261V28.1862C20.2066 28.0027 19.9122 28.0027 19.9122 28.1862V29.2261C19.9122 29.4096 20.2066 29.4096 20.2066 29.2261Z" fill="#5392F5"/>
<path d="M21.7039 29.6299C21.7807 29.6299 21.8574 29.5687 21.8446 29.4953L21.8063 28.9203C21.8063 28.8469 21.7423 28.7735 21.6655 28.7858C21.5887 28.7858 21.5119 28.8469 21.5247 28.9203L21.5631 29.4953C21.5631 29.5687 21.6271 29.6421 21.7039 29.6299Z" fill="#5392F5"/>
<path d="M40.9635 17.2984C40.7459 17.7143 40.4772 18.118 40.1701 18.485C38.5704 18.4239 37.0348 17.8489 35.7935 16.8702C35.9086 16.8213 36.0366 16.7601 36.1518 16.6867C36.4077 16.5277 36.6253 16.3564 36.8044 16.1606C37.9946 17.017 39.479 17.4207 40.9635 17.2984Z" fill="#D0E7F8"/>
<path d="M37.5211 14.7048C37.5723 14.3134 37.5339 13.9219 37.4187 13.5549C38.8392 13.5671 40.2597 13.1756 41.4626 12.4539C41.5905 12.8453 41.6673 13.249 41.7057 13.665C40.426 14.3378 38.9799 14.6926 37.5083 14.7048H37.5211Z" fill="#D0E7F8"/>
<path d="M4.24868 29.8499C4.1719 29.9356 4.10791 30.0212 4.03113 30.1068H4.40224C4.40224 30.1068 4.44063 30.0701 4.45343 30.0457C4.5814 29.9111 4.37665 29.7153 4.24868 29.8499Z" fill="#160301"/>
<path d="M26.554 12.7597C26.554 19.2313 20.1682 22.6811 13.4114 22.6811C6.65452 22.6811 0.255981 19.2313 0.255981 12.7597C0.255981 8.63694 6.64172 1.90845 13.3986 1.90845C20.1554 1.90845 26.5412 8.90608 26.5412 12.7597H26.554Z" fill="white" stroke="black" stroke-width="0.4" stroke-miterlimit="10"/>
<path d="M9.20115 2.8626C9.20115 2.8626 6.7953 0.587144 2.52108 0.256836C2.52108 0.256836 -0.23029 4.37957 2.21395 8.30656L9.20115 2.8626Z" fill="white" stroke="black" stroke-width="0.4" stroke-miterlimit="10"/>
<path d="M2.72581 7.37697C2.72581 7.37697 4.40222 5.62757 6.44975 4.62441C6.44975 4.62441 4.74774 5.04035 4.78613 4.62441C4.82453 4.20847 5.40039 3.70689 5.40039 3.70689C5.40039 3.70689 4.19747 3.71912 4.18467 3.43775C4.17188 3.15637 4.64537 2.9117 4.64537 2.9117C4.64537 2.9117 3.99272 2.05535 2.89217 1.6394C2.89217 1.6394 1.20295 3.64572 2.7386 7.38921L2.72581 7.37697Z" fill="#5392F5"/>
<path d="M17.6727 3.07061C17.6727 3.07061 20.0914 0.795152 24.3528 0.464844C24.3528 0.464844 27.0914 4.58757 24.6599 8.51457L17.6727 3.07061Z" fill="white" stroke="black" stroke-width="0.4" stroke-miterlimit="10"/>
<path d="M24.148 7.58474C24.148 7.58474 22.4716 5.83533 20.4241 4.83217C20.4241 4.83217 22.1261 5.24812 22.0877 4.83217C22.0493 4.41623 21.4734 3.91465 21.4734 3.91465C21.4734 3.91465 22.6764 3.92688 22.6892 3.64551C22.702 3.36414 22.2285 3.11946 22.2285 3.11946C22.2285 3.11946 22.8811 2.26311 23.9817 1.84717C23.9817 1.84717 25.6709 3.85348 24.1352 7.59697L24.148 7.58474Z" fill="#5392F5"/>
<path d="M36.6124 12.2704C36.0749 11.7811 35.3455 11.463 34.4497 11.463C31.7623 11.463 31.7751 7.48706 34.4497 7.48706C35.8446 7.48706 37.1755 7.87854 38.3016 8.55139C38.3912 9.97049 37.7514 11.4018 36.5996 12.2826L36.6124 12.2704Z" fill="#5392F5"/>
<path d="M9.34182 28.9079C9.34182 31.1345 7.44785 30.7185 5.11879 30.7185C2.78972 30.7185 0.895752 31.1345 0.895752 28.9079C0.895752 26.6814 2.78972 24.8708 5.11879 24.8708C7.44785 24.8708 9.34182 26.6814 9.34182 28.9079Z" fill="white" stroke="black" stroke-width="0.4" stroke-miterlimit="10"/>
<path d="M15.4332 28.4431C15.4332 30.6696 17.3272 30.2537 19.6563 30.2537C21.9853 30.2537 23.8793 30.6696 23.8793 28.4431C23.8793 26.2166 21.9853 24.406 19.6563 24.406C17.3272 24.406 15.4332 26.2166 15.4332 28.4431Z" fill="white" stroke="black" stroke-width="0.4" stroke-miterlimit="10"/>
<path d="M2.54659 29.0059C2.46981 29.0059 2.40582 29.067 2.40582 29.1404L2.36743 30.1069C2.36743 30.1803 2.43142 30.2415 2.5082 30.2415C2.58498 30.2415 2.64897 30.1803 2.64897 30.1069L2.68736 29.1404C2.68736 29.067 2.62337 29.0059 2.54659 29.0059Z" fill="#5392F5"/>
<path d="M4.72217 28.6635C4.65818 28.6512 4.55581 28.6879 4.54301 28.7613L4.33826 30.107C4.33826 30.1804 4.35105 30.2538 4.44063 30.2783C4.50462 30.2905 4.607 30.2538 4.61979 30.1804L4.82455 28.8347C4.82455 28.7613 4.81175 28.6879 4.72217 28.6635Z" fill="#5392F5"/>
<path d="M6.89766 29.0917C6.82088 29.0917 6.7569 29.1528 6.7569 29.2262L6.71851 30.0337C6.71851 30.1071 6.78249 30.1805 6.85927 30.1682C6.93606 30.1682 7.00004 30.1071 7.00004 30.0337L7.03843 29.2262C7.03843 29.1528 6.97445 29.0794 6.89766 29.0917Z" fill="#5392F5"/>
<path d="M21.8446 28.2351C21.9214 28.2351 21.9854 28.2963 21.9854 28.3697L22.0238 29.3361C22.0238 29.4095 21.9598 29.4707 21.883 29.4707C21.8062 29.4707 21.7422 29.4095 21.7422 29.3361L21.7039 28.3697C21.7039 28.2963 21.7678 28.2351 21.8446 28.2351Z" fill="#5392F5"/>
<path d="M19.6818 27.9049C19.7458 27.8927 19.8482 27.9294 19.861 28.0028L20.0658 29.3485C20.0658 29.4219 20.053 29.4953 19.9634 29.5197C19.8994 29.532 19.797 29.4953 19.7842 29.4219L19.5795 28.0762C19.5795 28.0028 19.5923 27.9294 19.6818 27.9049Z" fill="#5392F5"/>
<path d="M17.5064 28.3209C17.5832 28.3209 17.6471 28.3821 17.6471 28.4555L17.6855 29.2629C17.6855 29.3363 17.6215 29.4097 17.5448 29.3975C17.468 29.3975 17.404 29.3363 17.404 29.2629L17.3656 28.4555C17.3656 28.3821 17.4296 28.3087 17.5064 28.3209Z" fill="#5392F5"/>
<path d="M41.7184 13.665C41.68 13.2491 41.5905 12.8454 41.4753 12.4539C40.9762 10.8391 39.8245 9.44444 38.3144 8.55139C37.1883 7.87854 35.8574 7.48706 34.4625 7.48706C31.7879 7.48706 31.7751 11.4752 34.4625 11.463C35.3455 11.463 36.0877 11.7811 36.6252 12.2704C37.0091 12.6252 37.2906 13.0656 37.4314 13.5549C37.5466 13.9342 37.585 14.3257 37.5338 14.7049C37.457 15.2187 37.2394 15.7203 36.8171 16.1607C36.638 16.3564 36.4204 16.5277 36.1645 16.6867C36.0493 16.7601 35.9341 16.8213 35.8062 16.8702C34.3601 17.5064 32.4533 16.9926 30.9049 17.2862C28.883 17.6654 27.3473 18.9377 26.7203 20.8217C25.5301 24.3817 28.3071 27.1343 29.4204 30.2905H33.6819C33.4515 29.2507 33.0804 28.223 32.6069 27.2566C31.9159 25.8253 30.5978 24.2961 30.6106 22.6568C30.6106 20.9196 32.2998 21.1031 33.6947 21.1153C35.7678 21.1398 37.6234 20.7361 39.223 19.4393C39.5685 19.1579 39.8884 18.8399 40.17 18.4973C40.4771 18.1303 40.7458 17.7266 40.9634 17.3107C41.3089 16.65 41.5521 15.9527 41.6672 15.2309C41.7568 14.7049 41.7696 14.1911 41.7184 13.6773V13.665Z" stroke="black" stroke-width="0.4" stroke-miterlimit="10"/>
<path d="M17.2503 11.3038C17.2503 11.8176 16.8792 12.2458 16.4185 12.2458C15.9578 12.2458 15.5867 11.8299 15.5867 11.3038C15.5867 10.7778 15.9578 10.3618 16.4185 10.3618C16.8792 10.3618 17.2503 10.7778 17.2503 11.3038Z" fill="black"/>
<path d="M10.6727 11.3038C10.6727 11.8176 10.3015 12.2458 9.84084 12.2458C9.38015 12.2458 9.00903 11.8299 9.00903 11.3038C9.00903 10.7778 9.38015 10.3618 9.84084 10.3618C10.3015 10.3618 10.6727 10.7778 10.6727 11.3038Z" fill="black"/>
<path d="M14.2686 13.4691C14.2686 13.7504 13.7567 14.3988 13.1297 14.3988C12.5026 14.3988 11.9907 13.7382 11.9907 13.4691C11.9907 12.992 12.5026 13.2733 13.1297 13.2733C13.7567 13.2733 14.2686 13.0409 14.2686 13.4691Z" fill="black"/>
<path d="M14.4863 15.916H14.4607C13.5521 15.8303 13.0274 15.6713 13.0146 15.6591C12.8994 15.6224 12.8226 15.5245 12.8226 15.4144V14.399C12.8226 14.2522 12.9506 14.1421 13.0914 14.1421C13.2321 14.1421 13.3601 14.2644 13.3601 14.399V15.2186C13.5777 15.2676 13.9744 15.3532 14.5118 15.4022C14.6654 15.4144 14.7678 15.549 14.755 15.6835C14.7422 15.8181 14.627 15.916 14.4863 15.916Z" fill="black"/>
<path d="M11.7604 15.916C11.6196 15.916 11.5045 15.8181 11.4917 15.6836C11.4789 15.5368 11.5813 15.4144 11.7348 15.4022C12.5794 15.3166 13.0017 15.182 13.0145 15.1698C13.1553 15.1208 13.3089 15.1942 13.3601 15.3288C13.4112 15.4634 13.3345 15.6102 13.1937 15.6591C13.1681 15.6591 12.7074 15.8304 11.786 15.916H11.7604Z" fill="black"/>
<path d="M16.2651 14.6558C16.1243 14.6558 16.0091 14.5579 15.9963 14.4234C15.9835 14.2766 16.0859 14.1542 16.2395 14.142L20.1426 13.7627C20.2961 13.7505 20.4241 13.8484 20.4369 13.9952C20.4497 14.142 20.3473 14.2643 20.1938 14.2766L16.2906 14.6558H16.2651Z" fill="black"/>
<path d="M20.1298 15.916C20.1298 15.916 20.1042 15.916 20.0914 15.916L16.2139 15.3655C16.0603 15.341 15.9579 15.2064 15.9835 15.0719C16.0091 14.925 16.1499 14.8272 16.2907 14.8516L20.1682 15.4022C20.3217 15.4266 20.4241 15.5612 20.3985 15.6958C20.3729 15.8303 20.2578 15.916 20.1298 15.916Z" fill="black"/>
<path d="M9.99446 14.6558H9.96886L6.06575 14.2766C5.91219 14.2643 5.80981 14.1298 5.82261 13.9952C5.83541 13.8484 5.97618 13.7505 6.11694 13.7627L10.0201 14.142C10.1736 14.1542 10.276 14.2888 10.2632 14.4234C10.2504 14.5579 10.1352 14.6558 9.99446 14.6558Z" fill="black"/>
<path d="M6.1169 15.916C5.98893 15.916 5.87375 15.8181 5.84816 15.6958C5.82256 15.549 5.92494 15.4266 6.07851 15.4022L9.95602 14.8516C10.1096 14.8272 10.2376 14.925 10.2631 15.0719C10.2887 15.2187 10.1864 15.341 10.0328 15.3655L6.15529 15.916C6.15529 15.916 6.12969 15.916 6.1169 15.916Z" fill="black"/>
</svg>
