<svg width="10" height="6" viewBox="0 0 10 6" fill="none" xmlns="http://www.w3.org/2000/svg">
<g clip-path="url(#clip0)">
<path fill-rule="evenodd" clip-rule="evenodd" d="M9.7902 0.35947C9.8567 0.42743 9.90947 0.50816 9.94547 0.59705C9.98147 0.68593 10 0.78121 10 0.87745C10 0.97368 9.98147 1.06896 9.94547 1.15785C9.90947 1.24673 9.8567 1.32746 9.7902 1.39542L5.50546 5.78506C5.43913 5.85319 5.36032 5.90725 5.27356 5.94413C5.1868 5.98101 5.09379 6 4.99986 6C4.90593 6 4.81292 5.98101 4.72616 5.94413C4.6394 5.90725 4.5606 5.85319 4.49426 5.78506L0.209521 1.39542C0.0754307 1.25805 0.000100567 1.07172 0.000100584 0.877449C0.000100601 0.683169 0.0754308 0.496839 0.209521 0.359469C0.343621 0.222089 0.525491 0.144909 0.715121 0.144909C0.904761 0.144909 1.08663 0.222089 1.22072 0.359469L4.99986 4.23259L8.779 0.35947C8.84534 0.29134 8.92414 0.23728 9.0109 0.2004C9.09766 0.16352 9.19067 0.14453 9.2846 0.14453C9.37853 0.14453 9.47154 0.16352 9.5583 0.2004C9.64506 0.23728 9.72386 0.29134 9.7902 0.35947Z" fill="#9E9EAD"/>
</g>
<defs>
<clipPath id="clip0">
<rect width="10" height="6" fill="white" transform="translate(10 6) rotate(-180)"/>
</clipPath>
</defs>
</svg>
